<svg width="29" height="31" viewBox="0 0 29 31" fill="none" xmlns="http://www.w3.org/2000/svg">
<g filter="url(#filter0_d_91_2888)">
<path d="M18.5004 9V6C18.5004 3.79086 16.7095 2 14.5004 2C12.2912 2 10.5004 3.79086 10.5004 6V9M6.09237 10.352L5.49237 16.752C5.32178 18.5717 5.23648 19.4815 5.53842 20.1843C5.80367 20.8016 6.26849 21.3121 6.85839 21.6338C7.5299 22 8.44374 22 10.2714 22H18.7293C20.557 22 21.4708 22 22.1423 21.6338C22.7322 21.3121 23.1971 20.8016 23.4623 20.1843C23.7643 19.4815 23.679 18.5717 23.5084 16.752L22.9084 10.352C22.7643 8.81535 22.6923 8.04704 22.3467 7.46616C22.0424 6.95458 21.5927 6.54511 21.055 6.28984C20.4444 6 19.6727 6 18.1293 6L10.8714 6C9.32806 6 8.55638 6 7.94579 6.28984C7.40803 6.54511 6.95838 6.95458 6.65403 7.46616C6.30846 8.04704 6.23643 8.81534 6.09237 10.352Z" stroke="#989E9F" stroke-width="1.5" stroke-linecap="round" stroke-linejoin="round"/>
</g>
<defs>
<filter id="filter0_d_91_2888" x="-1.5" y="0" width="32" height="32" filterUnits="userSpaceOnUse" color-interpolation-filters="sRGB">
<feFlood flood-opacity="0" result="BackgroundImageFix"/>
<feColorMatrix in="SourceAlpha" type="matrix" values="0 0 0 0 0 0 0 0 0 0 0 0 0 0 0 0 0 0 127 0" result="hardAlpha"/>
<feOffset dy="4"/>
<feGaussianBlur stdDeviation="2"/>
<feComposite in2="hardAlpha" operator="out"/>
<feColorMatrix type="matrix" values="0 0 0 0 0 0 0 0 0 0 0 0 0 0 0 0 0 0 0.25 0"/>
<feBlend mode="normal" in2="BackgroundImageFix" result="effect1_dropShadow_91_2888"/>
<feBlend mode="normal" in="SourceGraphic" in2="effect1_dropShadow_91_2888" result="shape"/>
</filter>
</defs>
</svg>
