<svg width="22" height="18" viewBox="0 0 22 18" fill="none" xmlns="http://www.w3.org/2000/svg">
<path d="M1 5H21M1 5.8H21M4.07692 11.4H10.2308M4.07692 13.8H7.15385M3.30769 17H18.6923C19.3043 17 19.8913 16.7471 20.3241 16.2971C20.7569 15.847 21 15.2365 21 14.6V3.4C21 2.76348 20.7569 2.15303 20.3241 1.70294C19.8913 1.25286 19.3043 1 18.6923 1H3.30769C2.69565 1 2.10868 1.25286 1.67591 1.70294C1.24313 2.15303 1 2.76348 1 3.4V14.6C1 15.2365 1.24313 15.847 1.67591 16.2971C2.10868 16.7471 2.69565 17 3.30769 17Z" stroke="#2D3C52" stroke-width="1.5" stroke-linecap="round" stroke-linejoin="round"/>
</svg>
