<svg width="19" height="19" viewBox="0 0 19 19" fill="none" xmlns="http://www.w3.org/2000/svg">
<path fill-rule="evenodd" clip-rule="evenodd" d="M0.574027 7.43905C0.5 7.70352 0.5 7.9907 0.5 8.56505V15.8C0.5 16.9201 0.5 17.4801 0.717987 17.908C0.909734 18.2843 1.21569 18.5903 1.59202 18.782C2.01984 19 2.5799 19 3.7 19H15.3C16.4201 19 16.9802 19 17.408 18.782C17.7843 18.5903 18.0903 18.2843 18.282 17.908C18.5 17.4801 18.5 16.9201 18.5 15.8V8.56505C18.5 7.9907 18.5 7.70352 18.426 7.43905C18.3604 7.20478 18.2526 6.98444 18.108 6.78886C17.9447 6.56806 17.718 6.39175 17.2646 6.03913L10.4823 0.763999C10.131 0.490746 9.95532 0.354119 9.76135 0.301601C9.5902 0.255261 9.4098 0.255261 9.23865 0.301601C9.04468 0.354119 8.86902 0.490746 8.5177 0.763999L1.73539 6.03912C1.28202 6.39175 1.05534 6.56806 0.892027 6.78886C0.747366 6.98444 0.639601 7.20478 0.574027 7.43905ZM14.1003 12.1869C14.2036 11.7858 13.9621 11.3769 13.5609 11.2736C13.1598 11.1704 12.7509 11.4119 12.6477 11.813C12.2868 13.2149 11.0134 14.25 9.50002 14.25C7.98668 14.25 6.71319 13.2149 6.35236 11.813C6.24912 11.4119 5.84023 11.1704 5.43909 11.2736C5.03795 11.3769 4.79646 11.7858 4.89971 12.1869C5.42697 14.2355 7.28568 15.75 9.50002 15.75C11.7144 15.75 13.5731 14.2355 14.1003 12.1869Z" fill="#2D3C52"/>
</svg>
