<svg width="21" height="21" viewBox="0 0 21 21" fill="none" xmlns="http://www.w3.org/2000/svg">
<path d="M6.62602 13C7.07006 14.7252 8.63616 16 10.5 16C12.3638 16 13.9299 14.7252 14.374 13M9.5177 1.764L2.73539 7.03912C2.28202 7.39175 2.05534 7.56806 1.89203 7.78886C1.74737 7.98444 1.6396 8.20478 1.57403 8.43905C1.5 8.70352 1.5 8.9907 1.5 9.56505V16.8C1.5 17.9201 1.5 18.4801 1.71799 18.908C1.90973 19.2843 2.21569 19.5903 2.59202 19.782C3.01984 20 3.57989 20 4.7 20H16.3C17.4201 20 17.9802 20 18.408 19.782C18.7843 19.5903 19.0903 19.2843 19.282 18.908C19.5 18.4801 19.5 17.9201 19.5 16.8V9.56505C19.5 8.9907 19.5 8.70352 19.426 8.43905C19.3604 8.20478 19.2526 7.98444 19.108 7.78886C18.9447 7.56806 18.718 7.39175 18.2646 7.03913L11.4823 1.764C11.131 1.49075 10.9553 1.35412 10.7613 1.3016C10.5902 1.25526 10.4098 1.25526 10.2387 1.3016C10.0447 1.35412 9.86902 1.49075 9.5177 1.764Z" stroke="#989E9F" stroke-width="1.5" stroke-linecap="round" stroke-linejoin="round"/>
</svg>
