<svg width="20" height="20" viewBox="0 0 20 20" fill="none" xmlns="http://www.w3.org/2000/svg">
<path d="M14 14.9998L19 9.99982M19 9.99982L14 4.99982M19 9.99982H7M10 14.9998C10 15.2954 10 15.4432 9.98901 15.5712C9.87482 16.9018 8.89486 17.9967 7.58503 18.2571C7.45903 18.2821 7.31202 18.2985 7.01835 18.3311L5.99694 18.4446C4.46248 18.6151 3.69521 18.7003 3.08566 18.5053C2.27293 18.2452 1.60942 17.6513 1.26118 16.8723C1 16.288 1 15.5161 1 13.9721V6.02751C1 4.48358 1 3.71162 1.26118 3.12734C1.60942 2.3483 2.27293 1.75442 3.08566 1.49435C3.69521 1.29929 4.46246 1.38454 5.99694 1.55503L7.01835 1.66852C7.31212 1.70117 7.45901 1.71749 7.58503 1.74254C8.89486 2.00297 9.87482 3.09786 9.98901 4.42843C10 4.55645 10 4.70424 10 4.99982" stroke="#FF5944" stroke-width="1.5" stroke-linecap="round" stroke-linejoin="round"/>
</svg>
