<svg width="18" height="22" viewBox="0 0 18 22" fill="none" xmlns="http://www.w3.org/2000/svg">
<path d="M11.0327 17.015C11.4615 18.6154 10.5118 20.2604 8.91139 20.6893C7.31099 21.1181 5.66598 20.1683 5.23716 18.5679M7.53324 4.74109C7.83745 4.19379 7.93766 3.53229 7.7628 2.8797C7.40544 1.54603 6.0346 0.754574 4.70094 1.11193C3.36727 1.46928 2.57581 2.84013 2.93317 4.17379C3.10803 4.82639 3.52556 5.34916 4.06266 5.67103M12.8776 8.44553C12.5207 7.1134 11.5678 5.99944 10.2285 5.3487C8.88921 4.69797 7.27329 4.56377 5.73621 4.97563C4.19913 5.38749 2.86681 6.31167 2.03233 7.54486C1.19785 8.77805 0.929572 10.2192 1.28652 11.5514C1.87709 13.7554 1.76241 15.5138 1.38946 16.8499C0.964394 18.3728 0.75186 19.1342 0.809279 19.2871C0.874969 19.462 0.922488 19.5101 1.09672 19.5776C1.24901 19.6366 1.88878 19.4651 3.16832 19.1223L15.0334 15.9431C16.3129 15.6002 16.9527 15.4288 17.0551 15.3015C17.1722 15.1559 17.1894 15.0906 17.1588 14.9063C17.1321 14.7451 16.5673 14.192 15.4378 13.0857C14.4467 12.115 13.4682 10.6496 12.8776 8.44553Z" stroke="#2D3C52" stroke-width="1.5" stroke-linecap="round" stroke-linejoin="round"/>
</svg>
