<svg width="24" height="24" viewBox="0 0 24 24" fill="none" xmlns="http://www.w3.org/2000/svg">
<path d="M12 12C14.4853 12 16.5 9.98528 16.5 7.5C16.5 5.01472 14.4853 3 12 3C9.51472 3 7.5 5.01472 7.5 7.5C7.5 9.98528 9.51472 12 12 12Z" fill="#2D3C52"/>
<path d="M14.5 14H9.5C8.10444 14 7.40665 14 6.83886 14.2192C5.56045 14.7128 4.56004 15.986 4.17224 17.6131C4.06171 18.0768 4.02211 18.6087 4.00792 19.3996C3.99805 19.9498 3.99312 20.225 4.10068 20.4428C4.19418 20.6321 4.35089 20.7917 4.53853 20.8886C4.75439 21 5.03626 21 5.6 21H18.4C18.9637 21 19.2456 21 19.4615 20.8886C19.6491 20.7917 19.8058 20.6321 19.8993 20.4428C20.0069 20.225 20.0019 19.9498 19.9921 19.3996C19.9779 18.6087 19.9383 18.0768 19.8278 17.6131C19.44 15.986 18.4395 14.7128 17.1611 14.2192C16.5933 14 15.8956 14 14.5 14Z" fill="#2D3C52"/>
</svg>
