<svg width="20" height="20" viewBox="0 0 20 20" fill="none" xmlns="http://www.w3.org/2000/svg">
<path d="M7.49996 12.9167H6.24996C5.08699 12.9167 4.5055 12.9167 4.03234 13.0602C2.96701 13.3834 2.13333 14.217 1.81016 15.2824C1.66663 15.7555 1.66663 16.337 1.66663 17.5M12.0833 6.25C12.0833 8.32107 10.4044 10 8.33329 10C6.26222 10 4.58329 8.32107 4.58329 6.25C4.58329 4.17893 6.26222 2.5 8.33329 2.5C10.4044 2.5 12.0833 4.17893 12.0833 6.25ZM9.16663 17.5L11.7511 16.7616C11.8749 16.7262 11.9367 16.7085 11.9944 16.682C12.0457 16.6585 12.0944 16.6298 12.1399 16.5965C12.1911 16.5589 12.2366 16.5134 12.3276 16.4224L17.7083 11.0417C18.2836 10.4664 18.2836 9.53362 17.7083 8.95831C17.133 8.38302 16.2003 8.38303 15.625 8.95833L10.2443 14.339C10.1533 14.43 10.1077 14.4756 10.0702 14.5267C10.0368 14.5722 10.0081 14.6209 9.98458 14.6722C9.95808 14.7299 9.9404 14.7918 9.90504 14.9155L9.16663 17.5Z" stroke="#2D3C52" stroke-width="1.5" stroke-linecap="round" stroke-linejoin="round"/>
</svg>
